<svg width="196" height="110" viewBox="0 0 196 110" fill="none" xmlns="http://www.w3.org/2000/svg">
<rect x="2.5" y="2.5" width="98" height="105" stroke="white" stroke-width="5"/>
<path d="M44.5485 26.8574H38.2491C38.1341 26.0424 37.8991 25.3185 37.5444 24.6857C37.1896 24.0433 36.7342 23.4968 36.1781 23.0462C35.622 22.5955 34.9796 22.2504 34.2509 22.0107C33.5318 21.771 32.7504 21.6511 31.9066 21.6511C30.3821 21.6511 29.0542 22.0298 27.9228 22.7873C26.7914 23.5352 25.9141 24.6282 25.2908 26.0664C24.6676 27.495 24.356 29.2305 24.356 31.2727C24.356 33.3725 24.6676 35.1367 25.2908 36.5653C25.9237 37.994 26.8058 39.0726 27.9371 39.8013C29.0685 40.53 30.3773 40.8944 31.8635 40.8944C32.6976 40.8944 33.4695 40.7841 34.179 40.5636C34.8981 40.343 35.5357 40.0218 36.0918 39.6C36.6479 39.1685 37.1081 38.646 37.4725 38.0323C37.8464 37.4187 38.1053 36.7187 38.2491 35.9325L44.5485 35.9613C44.3855 37.3132 43.978 38.6172 43.326 39.8732C42.6836 41.1197 41.8159 42.2367 40.7228 43.2243C39.6394 44.2022 38.345 44.9789 36.8397 45.5542C35.3439 46.1199 33.6516 46.4027 31.7628 46.4027C29.1357 46.4027 26.7866 45.8082 24.7156 44.6193C22.6541 43.4304 21.0241 41.7093 19.8256 39.4561C18.6367 37.2029 18.0423 34.4751 18.0423 31.2727C18.0423 28.0607 18.6463 25.3281 19.8544 23.0749C21.0625 20.8217 22.7021 19.1055 24.7731 17.9261C26.8441 16.7372 29.174 16.1428 31.7628 16.1428C33.4695 16.1428 35.0515 16.3825 36.5089 16.8619C37.9759 17.3413 39.275 18.0412 40.4064 18.9616C41.5378 19.8725 42.4583 20.9895 43.1678 22.3127C43.8869 23.6358 44.3471 25.1507 44.5485 26.8574ZM58.3877 46V16.5455H70.0084C72.2328 16.5455 74.1313 16.9434 75.7037 17.7392C77.2857 18.5254 78.489 19.6424 79.3136 21.0902C80.1478 22.5284 80.5649 24.2207 80.5649 26.1671C80.5649 28.123 80.143 29.8058 79.2992 31.2152C78.4555 32.6151 77.233 33.6889 75.6318 34.4368C74.0402 35.1847 72.113 35.5586 69.8502 35.5586H62.0695V30.5536H68.8434C70.0324 30.5536 71.0199 30.3906 71.8062 30.0646C72.5924 29.7386 73.1772 29.2496 73.5608 28.5977C73.9539 27.9457 74.1504 27.1355 74.1504 26.1671C74.1504 25.1891 73.9539 24.3645 73.5608 23.6934C73.1772 23.0222 72.5876 22.514 71.7918 22.1689C71.0055 21.8141 70.0132 21.6367 68.8147 21.6367H64.6151V46H58.3877ZM74.2943 32.5959L81.6147 46H74.7401L67.5778 32.5959H74.2943ZM36.7534 65.5455H42.9808V84.6737C42.9808 86.8214 42.4679 88.7006 41.4419 90.3114C40.4256 91.9222 39.0018 93.1783 37.1705 94.0795C35.3391 94.9712 33.2058 95.4171 30.7704 95.4171C28.3255 95.4171 26.1873 94.9712 24.356 94.0795C22.5247 93.1783 21.1009 91.9222 20.0845 90.3114C19.0682 88.7006 18.56 86.8214 18.56 84.6737V65.5455H24.7875V84.1415C24.7875 85.2633 25.032 86.2605 25.521 87.133C26.0195 88.0055 26.7195 88.6911 27.6207 89.1896C28.522 89.6882 29.5719 89.9375 30.7704 89.9375C31.9785 89.9375 33.0284 89.6882 33.9201 89.1896C34.8214 88.6911 35.5165 88.0055 36.0055 87.133C36.5041 86.2605 36.7534 85.2633 36.7534 84.1415V65.5455ZM67.9194 95H57.478V65.5455H68.0057C70.9684 65.5455 73.5188 66.1351 75.657 67.3145C77.7951 68.4842 79.4395 70.1669 80.59 72.3626C81.7502 74.5582 82.3303 77.1854 82.3303 80.244C82.3303 83.3121 81.7502 85.9489 80.59 88.1541C79.4395 90.3594 77.7855 92.0517 75.6282 93.231C73.4805 94.4103 70.9109 95 67.9194 95ZM63.7054 89.6642H67.6605C69.5014 89.6642 71.0499 89.3382 72.3059 88.6863C73.5716 88.0247 74.5208 87.0036 75.1536 85.6229C75.796 84.2326 76.1172 82.4396 76.1172 80.244C76.1172 78.0675 75.796 76.2889 75.1536 74.9082C74.5208 73.5275 73.5763 72.5112 72.3203 71.8592C71.0643 71.2072 69.5158 70.8812 67.6749 70.8812H63.7054V89.6642Z" fill="white"/>
<path d="M130.539 25.0165C130.423 23.8564 129.93 22.9551 129.057 22.3127C128.185 21.6703 127.001 21.3491 125.505 21.3491C124.488 21.3491 123.63 21.4929 122.93 21.7805C122.23 22.0586 121.694 22.4469 121.32 22.9455C120.955 23.4441 120.773 24.0098 120.773 24.6426C120.754 25.1699 120.864 25.6301 121.104 26.0233C121.353 26.4164 121.694 26.7567 122.125 27.0444C122.556 27.3224 123.055 27.5669 123.621 27.7779C124.186 27.9792 124.79 28.1518 125.433 28.2956L128.079 28.9284C129.364 29.2161 130.543 29.5996 131.617 30.079C132.691 30.5584 133.621 31.1481 134.407 31.848C135.194 32.5479 135.802 33.3725 136.234 34.3217C136.675 35.271 136.9 36.3592 136.91 37.5865C136.9 39.389 136.44 40.9519 135.529 42.275C134.628 43.5886 133.324 44.6097 131.617 45.3384C129.92 46.0575 127.873 46.4171 125.476 46.4171C123.098 46.4171 121.027 46.0527 119.263 45.324C117.508 44.5953 116.137 43.5167 115.15 42.0881C114.172 40.6499 113.659 38.8713 113.611 36.7523H119.637C119.704 37.7399 119.987 38.5645 120.485 39.226C120.994 39.878 121.67 40.3718 122.513 40.7074C123.367 41.0334 124.33 41.1964 125.404 41.1964C126.459 41.1964 127.374 41.043 128.151 40.7362C128.937 40.4293 129.546 40.0027 129.978 39.4561C130.409 38.9096 130.625 38.2816 130.625 37.5721C130.625 36.9105 130.428 36.3544 130.035 35.9038C129.652 35.4531 129.086 35.0696 128.338 34.7532C127.6 34.4368 126.694 34.1491 125.62 33.8903L122.413 33.0849C119.929 32.4808 117.969 31.5364 116.53 30.2516C115.092 28.9668 114.378 27.2361 114.387 25.0597C114.378 23.2763 114.852 21.7182 115.811 20.3855C116.78 19.0527 118.108 18.0124 119.795 17.2646C121.483 16.5167 123.4 16.1428 125.548 16.1428C127.734 16.1428 129.642 16.5167 131.272 17.2646C132.912 18.0124 134.187 19.0527 135.098 20.3855C136.009 21.7182 136.478 23.2619 136.507 25.0165H130.539ZM139.977 21.6799V16.5455H164.167V21.6799H155.15V46H148.994V21.6799H139.977ZM186.345 16.5455H192.572V35.6737C192.572 37.8214 192.059 39.7006 191.033 41.3114C190.017 42.9222 188.593 44.1783 186.762 45.0795C184.93 45.9712 182.797 46.4171 180.362 46.4171C177.917 46.4171 175.779 45.9712 173.947 45.0795C172.116 44.1783 170.692 42.9222 169.676 41.3114C168.659 39.7006 168.151 37.8214 168.151 35.6737V16.5455H174.379V35.1415C174.379 36.2633 174.623 37.2605 175.112 38.133C175.611 39.0055 176.311 39.6911 177.212 40.1896C178.113 40.6882 179.163 40.9375 180.362 40.9375C181.57 40.9375 182.62 40.6882 183.511 40.1896C184.413 39.6911 185.108 39.0055 185.597 38.133C186.095 37.2605 186.345 36.2633 186.345 35.1415V16.5455ZM125.001 95H114.56V65.5455H125.088C128.05 65.5455 130.601 66.1351 132.739 67.3145C134.877 68.4842 136.521 70.1669 137.672 72.3626C138.832 74.5582 139.412 77.1854 139.412 80.244C139.412 83.3121 138.832 85.9489 137.672 88.1541C136.521 90.3594 134.868 92.0517 132.71 93.231C130.562 94.4103 127.993 95 125.001 95ZM120.787 89.6642H124.743C126.583 89.6642 128.132 89.3382 129.388 88.6863C130.654 88.0247 131.603 87.0036 132.236 85.6229C132.878 84.2326 133.199 82.4396 133.199 80.244C133.199 78.0675 132.878 76.2889 132.236 74.9082C131.603 73.5275 130.658 72.5112 129.402 71.8592C128.146 71.2072 126.598 70.8812 124.757 70.8812H120.787V89.6642ZM155.113 65.5455V95H148.885V65.5455H155.113ZM192.164 80.2727C192.164 83.4847 191.555 86.2173 190.337 88.4705C189.129 90.7237 187.48 92.4448 185.39 93.6337C183.309 94.813 180.969 95.4027 178.371 95.4027C175.754 95.4027 173.404 94.8082 171.324 93.6193C169.243 92.4304 167.599 90.7093 166.391 88.4561C165.183 86.2029 164.579 83.4751 164.579 80.2727C164.579 77.0607 165.183 74.3281 166.391 72.0749C167.599 69.8217 169.243 68.1055 171.324 66.9261C173.404 65.7372 175.754 65.1428 178.371 65.1428C180.969 65.1428 183.309 65.7372 185.39 66.9261C187.48 68.1055 189.129 69.8217 190.337 72.0749C191.555 74.3281 192.164 77.0607 192.164 80.2727ZM185.85 80.2727C185.85 78.1921 185.538 76.4375 184.915 75.0089C184.301 73.5803 183.434 72.4968 182.312 71.7585C181.19 71.0202 179.876 70.6511 178.371 70.6511C176.866 70.6511 175.552 71.0202 174.43 71.7585C173.309 72.4968 172.436 73.5803 171.813 75.0089C171.199 76.4375 170.892 78.1921 170.892 80.2727C170.892 82.3533 171.199 84.108 171.813 85.5366C172.436 86.9652 173.309 88.0487 174.43 88.7869C175.552 89.5252 176.866 89.8944 178.371 89.8944C179.876 89.8944 181.19 89.5252 182.312 88.7869C183.434 88.0487 184.301 86.9652 184.915 85.5366C185.538 84.108 185.85 82.3533 185.85 80.2727Z" fill="white"/>
</svg>
