<svg width="32" height="32" viewBox="0 0 32 32" fill="none" xmlns="http://www.w3.org/2000/svg">
<path fill-rule="evenodd" clip-rule="evenodd" d="M4.91853 0.752368C-1.63951 4.53882 -1.63951 27.2556 4.91853 31.0413C11.4772 34.8284 31.1546 23.4704 31.1546 15.8969C31.1546 8.32396 11.4772 -3.03473 4.91853 0.752368" fill="#FF5869"/>
<path fill-rule="evenodd" clip-rule="evenodd" d="M15.0944 19.5462C15.1767 19.5462 15.287 19.5279 15.4059 19.5097C15.5346 19.4914 15.5711 19.4914 15.6351 19.4914C16.1301 19.4914 16.3868 19.8577 16.3868 20.243C16.3868 20.5546 16.2039 20.8203 15.9107 20.9764C15.6443 21.1136 15.3053 21.1965 14.9475 21.1965C12.8668 21.1965 12.4084 19.9034 12.4084 18.3727V14.6502H11.7664C11.0147 14.6502 10.8867 14.1186 10.8867 13.8528C10.8867 13.587 11.0147 13.0554 11.7664 13.0554H12.4084V11.6801C12.4084 10.7632 13.0503 10.5986 13.371 10.5986C13.7008 10.5986 14.3336 10.7632 14.3336 11.6801V13.0554H15.562C16.3137 13.0554 16.4417 13.587 16.4417 13.8528C16.4417 14.1186 16.3137 14.6502 15.562 14.6502H14.3336V18.3544C14.3427 19.1335 14.6085 19.5462 15.0944 19.5462" fill="white"/>
</svg>
